# xmcd
#
# Track frame offsets: 
#        150
#        11570
#        22927
#        36124
#        47352
#        61971
#        80163
#        91235
#        106174
#        123753
#        137753
#        174775
#        202766
#        216786
#        232275
#        248817
#        264816
#        276803
#
# Disc length: 3799 seconds
#
# Revision: 4
# Processed by: cddbd v1.5.1PL0 Copyright (c) Steve Scherf et al.
# Submitted via: ExactAudioCopy v0.95a5
#
DISCID=e20ed512
DTITLE=Various Artist - Jazz and Blues Collection Complete CD 2
DYEAR=1900
DGENRE=
TTITLE0=Django Reinhardt - Dinah
TTITLE1=Louis Armstrong - Hello Dolly
TTITLE2=Sarah Vaughan - Body And Soul
TTITLE3=Dizzy Gillespie - Our Delight
TTITLE4=Bessie Smith - Mean Old Bed Bug Blues
TTITLE5=Fats Waller - Ain't Misbehavin'
TTITLE6=King Oliver's Creole Jazz Band - Dipper Mouth Blues (Sugar Foo
TTITLE6=t Stomp)
TTITLE7=Jelly Roll Morton - Wolverine Blues
TTITLE8=Louis Armstrong - Cabaret
TTITLE9=Fats Waller - Two Sleepy Peolpe
TTITLE10=Charles Mingus - What Is This Thing Called Love
TTITLE11=Miles Davis - A Night In Tunisia
TTITLE12=Charlie Parker - Relaxin' In Carmarillo
TTITLE13=Charles Russel - If I Had You
TTITLE14=Memphis Slim - Cold Blooded Woman
TTITLE15=Glen Miller - Green Eyes
TTITLE16=Billie Holiday - Billie's Blues
TTITLE17=Louis Armstrong - When the Saints Go Marchin' In
EXTD=
EXTT0=
EXTT1=
EXTT2=
EXTT3=
EXTT4=
EXTT5=
EXTT6=
EXTT7=
EXTT8=
EXTT9=
EXTT10=
EXTT11=
EXTT12=
EXTT13=
EXTT14=
EXTT15=
EXTT16=
EXTT17=
PLAYORDER=
